<?xml version="1.0" encoding="utf-8"?>
<!-- Generator: Adobe Illustrator 22.1.0, SVG Export Plug-In . SVG Version: 6.00 Build 0)  -->
<svg version="1.1" id="Capa_1" xmlns="http://www.w3.org/2000/svg" xmlns:xlink="http://www.w3.org/1999/xlink" x="0px" y="0px"
	 viewBox="0 0 50 50" style="enable-background:new 0 0 50 50;" xml:space="preserve">
<style type="text/css">
	.st0{fill:#FFFBE1;}
</style>
<circle cx="25" cy="25" r="25"/>
<path class="st0" d="M25,11.8c-7.6,0-13.8,4.8-13.8,10.7c0,4.4,3.8,8.1,8.6,9.8c-0.2,1.8-2.5,6-1,6h12.3c1.4,0-0.7-4.1-1.1-6
	c5.3-1.5,8.8-5.2,8.8-9.8C38.8,16.6,32.6,11.8,25,11.8z M21.4,35v2.3h-1.5V35c0,0,0-0.6,0.7-0.6C21.4,34.4,21.4,35,21.4,35z
	 M19.9,26.7c-1.8,0-3.2-2.4-3.2-5.4s1.4-5.4,3.2-5.4c1.8,0,3.2,2.4,3.2,5.4S21.6,26.7,19.9,26.7z M23.6,33.3v4h-1.5v-4
	c0,0,0-1,0.7-1C23.6,32.3,23.6,33.3,23.6,33.3z M25.7,31.8v5.5h-1.5v-5.6c0,0,0-1.4,0.7-1.4C25.8,30.4,25.7,31.8,25.7,31.8z
	 M25,28.1c-1.1,0-1.9,2-1.9,1.3l1.9-7l1.9,7C26.9,30.1,26.1,28.1,25,28.1z M27.9,33.3v4h-1.5v-4c0,0,0-1,0.7-1S27.9,33.3,27.9,33.3z
	 M30.1,35v2.3h-1.5V35c0,0,0-0.6,0.7-0.6C30.1,34.4,30.1,35,30.1,35z M30.1,26.7c-1.8,0-3.2-2.4-3.2-5.4s1.4-5.4,3.2-5.4
	c1.8,0,3.2,2.4,3.2,5.4S31.9,26.7,30.1,26.7z"/>
<g>
	<g>
		<path class="st0" d="M3.2,24.1c2.4,0,2.7-1.3,2.7-2.5c0-0.9-0.1-1.9-0.3-2.8S5.4,16.9,5.4,16c0-3.1,2-4.4,4.9-4.4h0.7v1.8h-0.6
			c-2,0-2.7,1.1-2.7,2.9c0,0.8,0.1,1.6,0.2,2.4c0.1,0.8,0.2,1.6,0.2,2.6c0,2.2-0.9,3.2-2.4,3.6V25c1.5,0.4,2.5,1.5,2.4,3.7
			c0,0.9-0.1,1.7-0.2,2.6c-0.1,0.8-0.2,1.6-0.2,2.4c0,1.9,0.8,2.9,2.7,2.9h0.6v1.8h-0.7c-2.8,0-4.9-1.2-4.9-4.6
			c0-0.9,0.1-1.8,0.3-2.8s0.3-1.8,0.3-2.7c0-1-0.3-2.5-2.7-2.5V24.1z"/>
	</g>
	<g>
		<path class="st0" d="M46.8,25.8c-2.4,0-2.7,1.4-2.7,2.5c0,0.9,0.1,1.8,0.3,2.7c0.1,0.9,0.3,1.8,0.3,2.8c0,3.4-2.1,4.6-4.9,4.6
			h-0.7v-1.8h0.6c1.9,0,2.7-1,2.7-2.9c0-0.8-0.1-1.6-0.2-2.4c-0.1-0.8-0.2-1.6-0.2-2.6c0-2.2,0.9-3.3,2.4-3.7v-0.1
			c-1.5-0.4-2.5-1.5-2.4-3.6c0-0.9,0.1-1.7,0.2-2.6c0.1-0.8,0.2-1.6,0.2-2.4c0-1.8-0.7-2.9-2.7-2.9h-0.6v-1.8h0.7
			c2.9,0,4.9,1.3,4.9,4.4c0,0.9-0.1,1.8-0.3,2.8c-0.1,0.9-0.3,1.9-0.3,2.8c0,1.2,0.3,2.5,2.7,2.5V25.8z"/>
	</g>
</g>
</svg>
